<svg width="24" height="28" viewBox="0 0 24 28" fill="none" xmlns="http://www.w3.org/2000/svg">
<path fill-rule="evenodd" clip-rule="evenodd" d="M21.7445 23.649C22.5576 22.4086 22.8608 21.7747 23.481 20.3828C18.9055 18.6463 18.1751 12.1276 22.6954 9.63314C21.3173 7.89666 19.3741 6.89062 17.5411 6.89062C16.2181 6.89062 15.3085 7.23518 14.4954 7.55215C13.8063 7.814 13.1862 8.04827 12.4144 8.04827C11.5875 8.04827 10.8571 7.78644 10.0853 7.51081C9.24466 7.20762 8.36263 6.89062 7.26011 6.89062C5.20666 6.89062 3.0154 8.14475 1.62347 10.2947C-0.333509 13.3266 0.0110327 19.0046 3.167 23.8557C4.29709 25.5922 5.81306 27.5354 7.78382 27.5629C8.61071 27.5767 9.14819 27.3287 9.74079 27.0668C10.4161 26.7636 11.1465 26.4328 12.4282 26.4328C13.7099 26.4191 14.4265 26.7636 15.1018 27.0668C15.6806 27.3287 16.2043 27.5767 17.0174 27.5629C19.0158 27.5354 20.6144 25.3855 21.7445 23.649Z" fill="white" style="fill:white;fill-opacity:1;"/>
<path fill-rule="evenodd" clip-rule="evenodd" d="M17.2518 0C17.4723 1.51597 16.8521 3.01817 16.039 4.06557C15.1708 5.19566 13.6548 6.07765 12.1939 6.02252C11.9321 4.56168 12.6074 3.05949 13.4343 2.05344C14.3577 0.950913 15.915 0.0964708 17.2518 0Z" fill="white" style="fill:white;fill-opacity:1;"/>
</svg>
