<svg width="24" height="24" viewBox="0 0 24 24" fill="none" xmlns="http://www.w3.org/2000/svg">
<path d="M19.8576 0H8.94258C6.6586 0 4.80003 1.85857 4.80003 4.14255V4.80003H4.14255C1.85857 4.80003 0 6.6586 0 8.94258V19.8575C0 22.1416 1.85857 24.0002 4.14255 24.0002H15.0575C17.1557 24.0002 18.8761 22.426 19.1452 20.4001H19.8575C22.1416 20.4001 24.0002 18.5416 24.0002 16.2576V4.14255C24.0002 1.85857 22.1416 0 19.8576 0ZM21.6001 16.2576C21.6001 17.2184 20.8185 18.0001 19.8576 18.0001H19.2001V8.94258C19.2001 6.6586 17.3416 4.80003 15.0576 4.80003H7.20005V4.14255C7.20005 3.1817 7.98173 2.40002 8.94258 2.40002H19.8575C20.8185 2.40002 21.6001 3.1817 21.6001 4.14255V16.2576Z" fill="black" style="fill:black;fill-opacity:1;"/>
</svg>
