<svg width="16" height="21" viewBox="0 0 16 21" fill="none" xmlns="http://www.w3.org/2000/svg">
<path fill-rule="evenodd" clip-rule="evenodd" d="M15.5647 8.18225C15.5647 4.11139 12.2531 0.799805 8.18225 0.799805C4.11139 0.799805 0.799805 4.11139 0.799805 8.18225C0.799805 11.977 3.67728 15.1111 7.36488 15.5192V16.9384H5.93956C5.48819 16.9384 5.12223 17.3043 5.12223 17.7557C5.12223 18.2071 5.48819 18.573 5.93956 18.573H7.36488V20.137C7.36488 20.5884 7.73083 20.9544 8.18221 20.9544C8.63359 20.9544 8.99954 20.5884 8.99954 20.137V18.573H10.4249C10.8762 18.573 11.2422 18.2071 11.2422 17.7557C11.2422 17.3043 10.8762 16.9384 10.4249 16.9384H8.99954V15.5192C12.6872 15.1112 15.5647 11.977 15.5647 8.18225ZM7.56483 15.3379V15.3378C5.84339 15.1906 4.2933 14.4336 3.13215 13.2844C4.29329 14.4336 5.84338 15.1906 7.56483 15.3379ZM13.2776 3.12494C14.567 4.42395 15.3646 6.21168 15.3646 8.1822C15.3646 11.9347 12.472 15.0237 8.79949 15.3378V17.1383H8.79954V15.3379C12.472 15.0238 15.3647 11.9347 15.3647 8.18225C15.3647 6.2117 14.567 4.42395 13.2776 3.12494ZM10.9367 17.4105C11.0033 17.5091 11.0421 17.6278 11.0421 17.7556C11.0421 18.0966 10.7657 18.373 10.4248 18.373H8.79949V20.137C8.79949 20.4779 8.52308 20.7543 8.18216 20.7543C8.054 20.7543 7.93495 20.7153 7.83628 20.6484C7.93496 20.7153 8.05402 20.7544 8.18221 20.7544C8.52313 20.7544 8.79954 20.478 8.79954 20.137V18.373H10.4249C10.7658 18.373 11.0422 18.0966 11.0422 17.7557C11.0422 17.6278 11.0033 17.5091 10.9367 17.4105ZM7.56483 18.373V18.373H5.93952C5.81451 18.373 5.69817 18.3358 5.60095 18.2719C5.69818 18.3358 5.81453 18.373 5.93956 18.373H7.56483ZM2.43446 8.18225C2.43446 5.0131 5.0131 2.43446 8.18225 2.43446C11.3514 2.43446 13.93 5.0131 13.93 8.18225C13.93 11.3514 11.3514 13.9301 8.18225 13.9301C5.0131 13.9301 2.43446 11.3514 2.43446 8.18225ZM2.23446 8.18225C2.23446 4.90264 4.90264 2.23446 8.18225 2.23446C9.82205 2.23446 11.309 2.90151 12.386 3.9785C11.309 2.90148 9.82203 2.23442 8.1822 2.23442C4.90259 2.23442 2.23442 4.90259 2.23442 8.1822C2.23442 9.80923 2.8911 11.2858 3.95334 12.3607C2.89113 11.2858 2.23446 9.80926 2.23446 8.18225Z" fill="#898989" style="fill:#898989;fill:color(display-p3 0.5357 0.5357 0.5357);fill-opacity:1;"/>
</svg>
