<svg width="25" height="26" viewBox="0 0 25 26" fill="none" xmlns="http://www.w3.org/2000/svg">
<path fill-rule="evenodd" clip-rule="evenodd" d="M24.9998 13.045C24.9998 12.1406 24.9186 11.2709 24.7679 10.436H12.7549V15.3699H19.6195C19.3238 16.9643 18.4251 18.3152 17.0742 19.2197V22.42H21.1964C23.6083 20.1995 24.9998 16.9295 24.9998 13.045Z" fill="white" style="fill:white;fill-opacity:1;"/>
<path fill-rule="evenodd" clip-rule="evenodd" d="M12.7559 25.5104C16.1997 25.5104 19.087 24.3682 21.1974 22.4201L17.0752 19.2198C15.933 19.9851 14.472 20.4373 12.7559 20.4373C9.43373 20.4373 6.6218 18.1936 5.61879 15.1787H1.35742V18.4834C3.45622 22.652 7.76977 25.5104 12.7559 25.5104Z" fill="white" style="fill:white;fill-opacity:1;"/>
<path fill-rule="evenodd" clip-rule="evenodd" d="M5.61805 15.1785C5.36295 14.4132 5.218 13.5957 5.218 12.7551C5.218 11.9144 5.36295 11.0969 5.61805 10.3316V7.02686H1.35668C0.492811 8.7488 0 10.6968 0 12.7551C0 14.8133 0.492811 16.7613 1.35668 18.4833L5.61805 15.1785Z" fill="white" style="fill:white;fill-opacity:1;"/>
<path fill-rule="evenodd" clip-rule="evenodd" d="M12.7559 5.07306C14.6285 5.07306 16.3099 5.71661 17.6318 6.98053L21.2902 3.32213C19.0812 1.26392 16.1939 0 12.7559 0C7.76976 0 3.45622 2.85831 1.35742 7.02691L5.61879 10.3316C6.6218 7.3168 9.43373 5.07306 12.7559 5.07306Z" fill="white" style="fill:white;fill-opacity:1;"/>
</svg>
