<svg width="76" height="63" viewBox="0 0 76 63" fill="none" xmlns="http://www.w3.org/2000/svg">
<path d="M64.3951 33.9897H58.6553C59.2403 35.5915 59.56 37.3202 59.56 39.1219V60.815C59.56 61.5661 59.4292 62.2872 59.1913 62.9577H68.6805C72.2252 62.9577 75.1088 60.0739 75.1088 56.5294V44.7035C75.109 38.796 70.3027 33.9897 64.3951 33.9897Z" fill="black" style="fill:black;fill-opacity:1;"/>
<path d="M16.4391 39.1224C16.4391 37.3205 16.7588 35.592 17.3438 33.9902H11.604C5.69639 33.9902 0.890137 38.7965 0.890137 44.7041V56.53C0.890137 60.0746 3.7738 62.9584 7.31848 62.9584H16.8078C16.5699 62.2875 16.4391 61.5666 16.4391 60.8154V39.1224Z" fill="black" style="fill:black;fill-opacity:1;"/>
<path d="M44.5605 28.4082H31.4385C25.5309 28.4082 20.7246 33.2145 20.7246 39.1221V60.8152C20.7246 61.9985 21.6839 62.958 22.8674 62.958H53.1316C54.315 62.958 55.2744 61.9986 55.2744 60.8152V39.1221C55.2744 33.2145 50.4681 28.4082 44.5605 28.4082Z" fill="black" style="fill:black;fill-opacity:1;"/>
<path d="M37.9996 0C30.8948 0 25.1147 5.78009 25.1147 12.885C25.1147 17.7041 27.7746 21.913 31.7027 24.1227C33.5658 25.1708 35.7138 25.7698 37.9996 25.7698C40.2853 25.7698 42.4333 25.1708 44.2964 24.1227C48.2247 21.913 50.8844 17.704 50.8844 12.885C50.8844 5.78023 45.1043 0 37.9996 0Z" fill="black" style="fill:black;fill-opacity:1;"/>
<path d="M15.3739 12.0098C10.0605 12.0098 5.73779 16.3324 5.73779 21.6459C5.73779 26.9594 10.0605 31.282 15.3739 31.282C16.7218 31.282 18.0052 31.0028 19.1711 30.501C21.1869 29.6331 22.849 28.0969 23.8775 26.1725C24.5994 24.8219 25.0101 23.2812 25.0101 21.6459C25.0101 16.3326 20.6874 12.0098 15.3739 12.0098Z" fill="black" style="fill:black;fill-opacity:1;"/>
<path d="M60.6249 12.0098C55.3114 12.0098 50.9888 16.3324 50.9888 21.6459C50.9888 23.2813 51.3994 24.8221 52.1213 26.1725C53.1498 28.097 54.8119 29.6333 56.8277 30.501C57.9936 31.0028 59.2771 31.282 60.6249 31.282C65.9384 31.282 70.261 26.9594 70.261 21.6459C70.261 16.3324 65.9384 12.0098 60.6249 12.0098Z" fill="black" style="fill:black;fill-opacity:1;"/>
</svg>
