<svg width="40" height="40" viewBox="0 0 40 40" fill="none" xmlns="http://www.w3.org/2000/svg">
<path d="M14.3 39H25.7C35.2 39 39 35.2 39 25.7V14.3C39 4.8 35.2 1 25.7 1H14.3C4.8 1 1 4.8 1 14.3V25.7C1 35.2 4.8 39 14.3 39Z" stroke="black" style="stroke:black;stroke-opacity:1;" stroke-width="2" stroke-linecap="round" stroke-linejoin="round"/>
<path d="M14.3 16.2001C16.3987 16.2001 18.1 14.4988 18.1 12.4001C18.1 10.3014 16.3987 8.6001 14.3 8.6001C12.2013 8.6001 10.5 10.3014 10.5 12.4001C10.5 14.4988 12.2013 16.2001 14.3 16.2001Z" stroke="black" style="stroke:black;stroke-opacity:1;" stroke-width="2" stroke-linecap="round" stroke-linejoin="round"/>
<path d="M2.27246 33.2049L11.6395 26.9159C13.1405 25.9089 15.3065 26.0229 16.6555 27.1819L17.2825 27.7329C18.7645 29.0059 21.1585 29.0059 22.6405 27.7329L30.5445 20.9499C32.0265 19.6769 34.4205 19.6769 35.9025 20.9499L38.9995 23.6099" stroke="black" style="stroke:black;stroke-opacity:1;" stroke-width="2" stroke-linecap="round" stroke-linejoin="round"/>
</svg>
