<svg width="20" height="19" viewBox="0 0 20 19" fill="none" xmlns="http://www.w3.org/2000/svg">
<path d="M9.70577 0C7.07006 0 6.73928 0.011141 5.70409 0.0566815C4.67092 0.102418 3.96569 0.260539 3.34861 0.492542C2.71031 0.732167 2.16886 1.05271 1.62942 1.57437C1.08958 2.09584 0.757998 2.61927 0.509308 3.23611C0.268706 3.83283 0.104935 4.51477 0.0584318 5.51314C0.0121311 6.51386 0 6.83382 0 9.38174C0 11.9297 0.011727 12.2485 0.0586343 13.2492C0.106148 14.2479 0.269717 14.9297 0.50951 15.5262C0.757593 16.1432 1.08918 16.6667 1.62882 17.1881C2.16805 17.71 2.7095 18.0313 3.3474 18.2709C3.96488 18.5029 4.67031 18.6611 5.70328 18.7068C6.73848 18.7523 7.06905 18.7635 9.70455 18.7635C12.3405 18.7635 12.6702 18.7523 13.7054 18.7068C14.7386 18.6611 15.4446 18.5029 16.0621 18.2709C16.7002 18.0313 17.2409 17.71 17.7801 17.1881C18.3199 16.6667 18.6515 16.1432 18.9002 15.5264C19.1388 14.9297 19.3026 14.2477 19.3511 13.2494C19.3976 12.2486 19.4097 11.9297 19.4097 9.38174C19.4097 6.83382 19.3976 6.51406 19.3511 5.51334C19.3026 4.51457 19.1388 3.83283 18.9002 3.23631C18.6515 2.61927 18.3199 2.09584 17.7801 1.57437C17.2403 1.05251 16.7004 0.731972 16.0615 0.492542C15.4428 0.260539 14.7372 0.102418 13.704 0.0566815C12.6688 0.011141 12.3392 0 9.70273 0H9.70577ZM8.83515 1.69067C9.09355 1.69028 9.38186 1.69067 9.70577 1.69067C12.297 1.69067 12.6041 1.69966 13.6274 1.74461C14.5736 1.78644 15.0872 1.93928 15.4293 2.0677C15.8822 2.23774 16.2051 2.44101 16.5445 2.76937C16.8842 3.09773 17.0945 3.41046 17.2708 3.84827C17.4036 4.17859 17.5619 4.67504 17.605 5.58976C17.6515 6.57875 17.6616 6.87584 17.6616 9.37959C17.6616 11.8833 17.6515 12.1804 17.605 13.1694C17.5617 14.0841 17.4036 14.5806 17.2708 14.9109C17.0949 15.3487 16.8842 15.6605 16.5445 15.9886C16.2049 16.317 15.8824 16.5203 15.4293 16.6903C15.0876 16.8193 14.5736 16.9718 13.6274 17.0136C12.6043 17.0585 12.297 17.0683 9.70577 17.0683C7.11434 17.0683 6.80722 17.0585 5.78416 17.0136C4.83792 16.9714 4.32437 16.8185 3.98207 16.6901C3.52917 16.5201 3.20567 16.3168 2.866 15.9884C2.52632 15.6601 2.31605 15.3481 2.13974 14.9101C2.0069 14.5798 1.84859 14.0834 1.80553 13.1686C1.75902 12.1797 1.74972 11.8826 1.74972 9.37725C1.74972 6.87193 1.75902 6.57641 1.80553 5.58741C1.84879 4.6727 2.0069 4.17624 2.13974 3.84554C2.31564 3.40772 2.52632 3.095 2.866 2.76664C3.20567 2.43828 3.52917 2.235 3.98207 2.06457C4.32417 1.93557 4.83792 1.78312 5.78416 1.7411C6.67944 1.702 7.02639 1.69028 8.83515 1.68832V1.69067ZM14.8862 3.24843C14.2432 3.24843 13.7216 3.75211 13.7216 4.37385C13.7216 4.99539 14.2432 5.49966 14.8862 5.49966C15.5291 5.49966 16.0508 4.99539 16.0508 4.37385C16.0508 3.75231 15.5291 3.24804 14.8862 3.24804V3.24843ZM9.70577 4.56383C6.9534 4.56383 4.72187 6.72104 4.72187 9.38174C4.72187 12.0424 6.9534 14.1987 9.70577 14.1987C12.4581 14.1987 14.6889 12.0424 14.6889 9.38174C14.6889 6.72104 12.4579 4.56383 9.70556 4.56383H9.70577ZM9.70577 6.2545C11.4923 6.2545 12.9408 7.65453 12.9408 9.38174C12.9408 11.1088 11.4923 12.509 9.70577 12.509C7.91904 12.509 6.47078 11.1088 6.47078 9.38174C6.47078 7.65453 7.91904 6.2545 9.70577 6.2545Z" fill="url(#paint0_radial_642_22527)" style=""/>
<path d="M9.70577 0C7.07006 0 6.73928 0.011141 5.70409 0.0566815C4.67092 0.102418 3.96569 0.260539 3.34861 0.492542C2.71031 0.732167 2.16886 1.05271 1.62942 1.57437C1.08958 2.09584 0.757998 2.61927 0.509308 3.23611C0.268706 3.83283 0.104935 4.51477 0.0584318 5.51314C0.0121311 6.51386 0 6.83382 0 9.38174C0 11.9297 0.011727 12.2485 0.0586343 13.2492C0.106148 14.2479 0.269717 14.9297 0.50951 15.5262C0.757593 16.1432 1.08918 16.6667 1.62882 17.1881C2.16805 17.71 2.7095 18.0313 3.3474 18.2709C3.96488 18.5029 4.67031 18.6611 5.70328 18.7068C6.73848 18.7523 7.06905 18.7635 9.70455 18.7635C12.3405 18.7635 12.6702 18.7523 13.7054 18.7068C14.7386 18.6611 15.4446 18.5029 16.0621 18.2709C16.7002 18.0313 17.2409 17.71 17.7801 17.1881C18.3199 16.6667 18.6515 16.1432 18.9002 15.5264C19.1388 14.9297 19.3026 14.2477 19.3511 13.2494C19.3976 12.2486 19.4097 11.9297 19.4097 9.38174C19.4097 6.83382 19.3976 6.51406 19.3511 5.51334C19.3026 4.51457 19.1388 3.83283 18.9002 3.23631C18.6515 2.61927 18.3199 2.09584 17.7801 1.57437C17.2403 1.05251 16.7004 0.731972 16.0615 0.492542C15.4428 0.260539 14.7372 0.102418 13.704 0.0566815C12.6688 0.011141 12.3392 0 9.70273 0H9.70577ZM8.83515 1.69067C9.09355 1.69028 9.38186 1.69067 9.70577 1.69067C12.297 1.69067 12.6041 1.69966 13.6274 1.74461C14.5736 1.78644 15.0872 1.93928 15.4293 2.0677C15.8822 2.23774 16.2051 2.44101 16.5445 2.76937C16.8842 3.09773 17.0945 3.41046 17.2708 3.84827C17.4036 4.17859 17.5619 4.67504 17.605 5.58976C17.6515 6.57875 17.6616 6.87584 17.6616 9.37959C17.6616 11.8833 17.6515 12.1804 17.605 13.1694C17.5617 14.0841 17.4036 14.5806 17.2708 14.9109C17.0949 15.3487 16.8842 15.6605 16.5445 15.9886C16.2049 16.317 15.8824 16.5203 15.4293 16.6903C15.0876 16.8193 14.5736 16.9718 13.6274 17.0136C12.6043 17.0585 12.297 17.0683 9.70577 17.0683C7.11434 17.0683 6.80722 17.0585 5.78416 17.0136C4.83792 16.9714 4.32437 16.8185 3.98207 16.6901C3.52917 16.5201 3.20567 16.3168 2.866 15.9884C2.52632 15.6601 2.31605 15.3481 2.13974 14.9101C2.0069 14.5798 1.84859 14.0834 1.80553 13.1686C1.75902 12.1797 1.74972 11.8826 1.74972 9.37725C1.74972 6.87193 1.75902 6.57641 1.80553 5.58741C1.84879 4.6727 2.0069 4.17624 2.13974 3.84554C2.31564 3.40772 2.52632 3.095 2.866 2.76664C3.20567 2.43828 3.52917 2.235 3.98207 2.06457C4.32417 1.93557 4.83792 1.78312 5.78416 1.7411C6.67944 1.702 7.02639 1.69028 8.83515 1.68832V1.69067ZM14.8862 3.24843C14.2432 3.24843 13.7216 3.75211 13.7216 4.37385C13.7216 4.99539 14.2432 5.49966 14.8862 5.49966C15.5291 5.49966 16.0508 4.99539 16.0508 4.37385C16.0508 3.75231 15.5291 3.24804 14.8862 3.24804V3.24843ZM9.70577 4.56383C6.9534 4.56383 4.72187 6.72104 4.72187 9.38174C4.72187 12.0424 6.9534 14.1987 9.70577 14.1987C12.4581 14.1987 14.6889 12.0424 14.6889 9.38174C14.6889 6.72104 12.4579 4.56383 9.70556 4.56383H9.70577ZM9.70577 6.2545C11.4923 6.2545 12.9408 7.65453 12.9408 9.38174C12.9408 11.1088 11.4923 12.509 9.70577 12.509C7.91904 12.509 6.47078 11.1088 6.47078 9.38174C6.47078 7.65453 7.91904 6.2545 9.70577 6.2545Z" fill="url(#paint1_radial_642_22527)" style=""/>
<defs>
<radialGradient id="paint0_radial_642_22527" cx="0" cy="0" r="1" gradientUnits="userSpaceOnUse" gradientTransform="translate(5.15573 20.2087) rotate(-90) scale(18.596 17.8914)">
<stop stop-color="#FFDD55" style="stop-color:#FFDD55;stop-color:color(display-p3 1.0000 0.8667 0.3333);stop-opacity:1;"/>
<stop offset="0.1" stop-color="#FFDD55" style="stop-color:#FFDD55;stop-color:color(display-p3 1.0000 0.8667 0.3333);stop-opacity:1;"/>
<stop offset="0.5" stop-color="#FF543E" style="stop-color:#FF543E;stop-color:color(display-p3 1.0000 0.3294 0.2431);stop-opacity:1;"/>
<stop offset="1" stop-color="#C837AB" style="stop-color:#C837AB;stop-color:color(display-p3 0.7843 0.2157 0.6706);stop-opacity:1;"/>
</radialGradient>
<radialGradient id="paint1_radial_642_22527" cx="0" cy="0" r="1" gradientUnits="userSpaceOnUse" gradientTransform="translate(-3.25123 1.35169) rotate(78.3014) scale(8.3237 35.3968)">
<stop stop-color="#3771C8" style="stop-color:#3771C8;stop-color:color(display-p3 0.2157 0.4431 0.7843);stop-opacity:1;"/>
<stop offset="0.128" stop-color="#3771C8" style="stop-color:#3771C8;stop-color:color(display-p3 0.2157 0.4431 0.7843);stop-opacity:1;"/>
<stop offset="1" stop-color="#6600FF" stop-opacity="0" style="stop-color:none;stop-opacity:0;"/>
</radialGradient>
</defs>
</svg>
