<svg width="32" height="32" viewBox="0 0 32 32" fill="none" xmlns="http://www.w3.org/2000/svg">
<path d="M16 0C7.17775 0 0 7.17775 0 16C0 24.8223 7.17775 32 16 32C24.8223 32 32 24.8223 32 16C32 7.17775 24.8223 0 16 0ZM16 28C9.38344 28 4 22.6166 4 16C4 13.4746 4.76562 11.0872 6.22137 9.05013L22.9499 25.7786C20.9128 27.2344 18.5254 28 16 28ZM25.7786 22.9499L9.05013 6.22137C11.0872 4.76562 13.4746 4 16 4C22.6166 4 28 9.38344 28 16C28 18.5254 27.2344 20.9128 25.7786 22.9499Z" fill="#FF0000" style="fill:#FF0000;fill:color(display-p3 1.0000 0.0000 0.0000);fill-opacity:1;"/>
</svg>
