<svg width="23" height="15" viewBox="0 0 23 15" fill="none" xmlns="http://www.w3.org/2000/svg">
<path fill-rule="evenodd" clip-rule="evenodd" d="M22.2862 8.01965C22.2616 8.07765 22.2277 8.13177 22.1878 8.1833C22.1775 8.19677 22.1671 8.20972 22.1557 8.22266C22.1514 8.22758 22.1474 8.23279 22.1434 8.23803C22.1381 8.24507 22.1327 8.25214 22.1263 8.25853L18.414 11.9708C18.1213 12.2636 17.6461 12.2636 17.3534 11.9708C17.0606 11.6781 17.0606 11.2029 17.3534 10.9102L19.7854 8.47812H15.9507V11.0003C15.9507 11.4145 15.6149 11.7503 15.2007 11.7503C14.7865 11.7503 14.4507 11.4145 14.4507 11.0003V8.47812H13.4543C13.2851 9.99855 12.6148 11.4061 11.5197 12.5012C8.88801 15.1329 4.60549 15.1329 1.97378 12.5012C-0.657928 9.86946 -0.657928 5.58694 1.97378 2.95523C4.60549 0.323518 8.88801 0.323518 11.5197 2.95523C12.6153 4.05085 13.2856 5.45889 13.4546 6.97802H14.4507V5.00028C14.4507 4.58606 14.7865 4.25028 15.2007 4.25028C15.6149 4.25028 15.9507 4.58606 15.9507 5.00028V6.97802H19.7852L17.3534 4.54622C17.0606 4.25348 17.0606 3.7783 17.3534 3.48556C17.6461 3.19282 18.1213 3.19282 18.414 3.48556L22.1263 7.19787C22.1749 7.24642 22.2122 7.30132 22.2448 7.35829C22.2528 7.37201 22.2599 7.38561 22.2668 7.39998C22.295 7.45721 22.3174 7.51638 22.33 7.57762C22.3301 7.57853 22.3304 7.57937 22.3308 7.58021C22.3311 7.58105 22.3314 7.58189 22.3315 7.5828C22.344 7.64676 22.3453 7.71124 22.3414 7.77572C22.3406 7.79125 22.3389 7.80666 22.3372 7.82233C22.329 7.88732 22.3146 7.95193 22.2895 8.01382C22.2895 8.01434 22.2895 8.01486 22.2892 8.01512C22.2882 8.01667 22.2867 8.01809 22.2862 8.01965ZM3.03444 4.01589C0.987312 6.06302 0.987312 9.39338 3.03444 11.4405C5.08157 13.4876 8.41193 13.4876 10.4591 11.4405C11.4502 10.4494 11.9975 9.13041 11.9999 7.72678C11.9975 6.32598 11.4502 5.00702 10.4591 4.01589C8.41193 1.96876 5.08157 1.96876 3.03444 4.01589Z" fill="#898989" style="fill:#898989;fill:color(display-p3 0.5357 0.5357 0.5357);fill-opacity:1;"/>
</svg>
