<svg width="21" height="17" viewBox="0 0 21 17" fill="none" xmlns="http://www.w3.org/2000/svg">
<path fill-rule="evenodd" clip-rule="evenodd" d="M18.8513 4.23087C18.8592 4.41777 18.8618 4.6046 18.8618 4.79151C18.8618 10.4582 14.5286 17 6.60452 17C4.1704 17 1.90702 16.2863 0 15.0714C0.3371 15.1054 0.679456 15.131 1.02706 15.131C3.04528 15.131 4.90415 14.4427 6.37863 13.2873C4.4935 13.2618 2.90169 12.0129 2.3527 10.3137C2.61625 10.3647 2.88767 10.3903 3.16523 10.3903C3.55661 10.3903 3.93661 10.3394 4.30085 10.2374C2.32816 9.84661 0.842316 8.11352 0.842316 6.03206C0.842316 6.00658 0.842316 5.99803 0.842316 5.98104C1.4237 6.29538 2.08914 6.49069 2.79573 6.51617C1.63821 5.74306 0.87732 4.42625 0.87732 2.9395C0.87732 2.15789 1.08921 1.41872 1.46221 0.781542C3.58637 3.38124 6.76214 5.08891 10.3424 5.26732C10.2689 4.95298 10.2312 4.62173 10.2312 4.29039C10.2312 1.92008 12.1601 0 14.5399 0C15.7789 0 16.8979 0.518315 17.6833 1.3509C18.6665 1.16399 19.5877 0.807196 20.4212 0.314442C20.0981 1.31694 19.416 2.15785 18.5247 2.68458C19.3968 2.58263 20.2286 2.35342 21 2.01359C20.4212 2.87166 19.6927 3.62767 18.8513 4.23087Z" fill="#1EA1F2" style="fill:#1EA1F2;fill:color(display-p3 0.1176 0.6314 0.9490);fill-opacity:1;"/>
</svg>
